<?xml version="1.0" encoding="UTF-8"?>
<svg xmlns="http://www.w3.org/2000/svg" version="1.1" width="100" height="100" viewBox="0 0 100 100"><rect x="0" y="0" width="100" height="100" fill="#ffffff"/><g transform="scale(4.762)"><g transform="translate(0,0)"><path fill-rule="evenodd" d="M10 0L10 3L12 3L12 4L8 4L8 8L6 8L6 9L7 9L7 10L5 10L5 11L3 11L3 9L4 9L4 8L3 8L3 9L2 9L2 8L0 8L0 10L2 10L2 11L1 11L1 12L2 12L2 13L3 13L3 12L5 12L5 13L8 13L8 15L9 15L9 16L10 16L10 17L8 17L8 18L10 18L10 19L8 19L8 21L9 21L9 20L10 20L10 21L11 21L11 17L14 17L14 19L13 19L13 18L12 18L12 19L13 19L13 20L12 20L12 21L13 21L13 20L14 20L14 19L15 19L15 17L14 17L14 16L15 16L15 15L14 15L14 13L13 13L13 14L12 14L12 12L13 12L13 11L15 11L15 10L14 10L14 9L17 9L17 11L16 11L16 12L15 12L15 14L16 14L16 16L17 16L17 17L16 17L16 18L18 18L18 21L19 21L19 18L20 18L20 20L21 20L21 17L20 17L20 15L21 15L21 9L20 9L20 8L18 8L18 9L17 9L17 8L14 8L14 9L13 9L13 8L10 8L10 9L11 9L11 10L8 10L8 8L9 8L9 6L10 6L10 7L11 7L11 5L13 5L13 3L12 3L12 2L13 2L13 0L12 0L12 2L11 2L11 0ZM8 1L8 3L9 3L9 1ZM12 6L12 7L13 7L13 6ZM12 9L12 11L11 11L11 12L10 12L10 11L9 11L9 14L11 14L11 12L12 12L12 11L13 11L13 9ZM19 9L19 10L20 10L20 9ZM2 11L2 12L3 12L3 11ZM6 11L6 12L7 12L7 11ZM17 11L17 12L16 12L16 14L17 14L17 15L18 15L18 18L19 18L19 15L20 15L20 14L19 14L19 13L20 13L20 11L19 11L19 12L18 12L18 11ZM17 12L17 14L18 14L18 12ZM15 20L15 21L16 21L16 20ZM0 0L0 7L7 7L7 0ZM1 1L1 6L6 6L6 1ZM2 2L2 5L5 5L5 2ZM14 0L14 7L21 7L21 0ZM15 1L15 6L20 6L20 1ZM16 2L16 5L19 5L19 2ZM0 14L0 21L7 21L7 14ZM1 15L1 20L6 20L6 15ZM2 16L2 19L5 19L5 16Z" fill="#000000"/></g></g></svg>
