<?xml version="1.0" encoding="UTF-8"?>
<svg xmlns="http://www.w3.org/2000/svg" version="1.1" width="100" height="100" viewBox="0 0 100 100"><rect x="0" y="0" width="100" height="100" fill="#ffffff"/><g transform="scale(4.762)"><g transform="translate(0,0)"><path fill-rule="evenodd" d="M8 0L8 4L9 4L9 5L8 5L8 7L9 7L9 5L10 5L10 7L11 7L11 5L12 5L12 7L13 7L13 2L12 2L12 1L13 1L13 0L12 0L12 1L11 1L11 2L10 2L10 1L9 1L9 0ZM9 3L9 4L10 4L10 3ZM11 3L11 4L12 4L12 3ZM0 8L0 11L1 11L1 12L0 12L0 13L2 13L2 10L3 10L3 12L4 12L4 13L5 13L5 12L6 12L6 13L7 13L7 12L6 12L6 11L7 11L7 10L3 10L3 9L2 9L2 8ZM4 8L4 9L7 9L7 8ZM12 8L12 11L11 11L11 9L9 9L9 10L10 10L10 11L11 11L11 12L9 12L9 11L8 11L8 14L10 14L10 13L12 13L12 14L11 14L11 17L12 17L12 18L10 18L10 15L8 15L8 17L9 17L9 18L10 18L10 19L12 19L12 20L11 20L11 21L15 21L15 19L17 19L17 18L18 18L18 19L19 19L19 18L21 18L21 17L20 17L20 16L19 16L19 17L18 17L18 15L19 15L19 13L21 13L21 12L20 12L20 11L17 11L17 10L14 10L14 9L13 9L13 8ZM15 8L15 9L16 9L16 8ZM17 8L17 9L21 9L21 8ZM1 9L1 10L2 10L2 9ZM12 12L12 13L13 13L13 14L12 14L12 15L13 15L13 17L15 17L15 18L12 18L12 19L13 19L13 20L14 20L14 19L15 19L15 18L17 18L17 15L18 15L18 13L19 13L19 12L18 12L18 13L17 13L17 12L14 12L14 13L13 13L13 12ZM14 13L14 14L13 14L13 15L14 15L14 16L16 16L16 15L17 15L17 14L16 14L16 13ZM14 14L14 15L16 15L16 14ZM20 14L20 15L21 15L21 14ZM8 19L8 21L10 21L10 20L9 20L9 19ZM20 19L20 20L17 20L17 21L21 21L21 19ZM0 0L0 7L7 7L7 0ZM1 1L1 6L6 6L6 1ZM2 2L2 5L5 5L5 2ZM14 0L14 7L21 7L21 0ZM15 1L15 6L20 6L20 1ZM16 2L16 5L19 5L19 2ZM0 14L0 21L7 21L7 14ZM1 15L1 20L6 20L6 15ZM2 16L2 19L5 19L5 16Z" fill="#000000"/></g></g></svg>
