<?xml version="1.0" encoding="UTF-8"?>
<svg xmlns="http://www.w3.org/2000/svg" version="1.1" width="100" height="100" viewBox="0 0 100 100"><rect x="0" y="0" width="100" height="100" fill="#ffffff"/><g transform="scale(4.762)"><g transform="translate(0,0)"><path fill-rule="evenodd" d="M10 0L10 1L11 1L11 0ZM12 0L12 2L13 2L13 0ZM8 2L8 3L9 3L9 2ZM10 2L10 3L11 3L11 2ZM12 3L12 4L11 4L11 5L10 5L10 4L9 4L9 6L8 6L8 8L4 8L4 9L3 9L3 8L0 8L0 9L1 9L1 11L0 11L0 12L2 12L2 13L3 13L3 12L2 12L2 9L3 9L3 11L4 11L4 12L5 12L5 13L7 13L7 12L5 12L5 11L4 11L4 9L8 9L8 10L9 10L9 6L10 6L10 9L11 9L11 10L10 10L10 11L8 11L8 12L9 12L9 13L8 13L8 17L10 17L10 18L12 18L12 19L13 19L13 20L12 20L12 21L14 21L14 19L15 19L15 21L17 21L17 20L20 20L20 21L21 21L21 18L20 18L20 17L19 17L19 18L20 18L20 19L18 19L18 18L17 18L17 17L18 17L18 12L19 12L19 8L18 8L18 9L17 9L17 10L16 10L16 9L15 9L15 8L12 8L12 9L11 9L11 6L12 6L12 7L13 7L13 6L12 6L12 5L13 5L13 3ZM12 9L12 11L13 11L13 10L15 10L15 11L16 11L16 12L12 12L12 14L11 14L11 15L12 15L12 16L11 16L11 17L12 17L12 18L13 18L13 19L14 19L14 18L13 18L13 16L14 16L14 17L15 17L15 16L16 16L16 17L17 17L17 15L16 15L16 14L15 14L15 13L16 13L16 12L17 12L17 11L16 11L16 10L15 10L15 9ZM20 9L20 11L21 11L21 9ZM6 10L6 11L7 11L7 10ZM10 11L10 13L9 13L9 14L10 14L10 13L11 13L11 11ZM20 12L20 14L21 14L21 12ZM13 13L13 14L12 14L12 15L15 15L15 14L14 14L14 13ZM9 15L9 16L10 16L10 15ZM19 15L19 16L20 16L20 15ZM8 18L8 21L10 21L10 20L9 20L9 18ZM16 18L16 20L17 20L17 18ZM0 0L0 7L7 7L7 0ZM1 1L1 6L6 6L6 1ZM2 2L2 5L5 5L5 2ZM14 0L14 7L21 7L21 0ZM15 1L15 6L20 6L20 1ZM16 2L16 5L19 5L19 2ZM0 14L0 21L7 21L7 14ZM1 15L1 20L6 20L6 15ZM2 16L2 19L5 19L5 16Z" fill="#000000"/></g></g></svg>
