<?xml version="1.0" encoding="UTF-8"?>
<svg xmlns="http://www.w3.org/2000/svg" version="1.1" width="100" height="100" viewBox="0 0 100 100"><rect x="0" y="0" width="100" height="100" fill="#ffffff"/><g transform="scale(4.762)"><g transform="translate(0,0)"><path fill-rule="evenodd" d="M10 0L10 1L11 1L11 0ZM12 0L12 2L13 2L13 0ZM8 2L8 3L9 3L9 2ZM10 2L10 3L11 3L11 2ZM12 3L12 4L11 4L11 5L10 5L10 4L9 4L9 6L8 6L8 8L4 8L4 9L3 9L3 8L0 8L0 10L1 10L1 11L0 11L0 13L4 13L4 12L6 12L6 13L8 13L8 17L9 17L9 15L10 15L10 14L12 14L12 15L11 15L11 16L10 16L10 18L8 18L8 21L10 21L10 19L11 19L11 21L12 21L12 20L14 20L14 19L15 19L15 18L17 18L17 19L18 19L18 12L19 12L19 8L18 8L18 9L17 9L17 10L16 10L16 12L15 12L15 13L16 13L16 12L17 12L17 15L16 15L16 14L12 14L12 12L13 12L13 11L14 11L14 10L13 10L13 11L12 11L12 9L15 9L15 8L12 8L12 9L11 9L11 6L12 6L12 7L13 7L13 6L12 6L12 5L13 5L13 3ZM9 6L9 11L10 11L10 12L8 12L8 13L10 13L10 12L11 12L11 9L10 9L10 6ZM2 9L2 10L3 10L3 11L2 11L2 12L4 12L4 10L3 10L3 9ZM6 9L6 10L5 10L5 11L6 11L6 12L7 12L7 11L8 11L8 10L7 10L7 9ZM20 9L20 11L21 11L21 9ZM6 10L6 11L7 11L7 10ZM20 12L20 14L21 14L21 12ZM13 15L13 17L12 17L12 16L11 16L11 19L12 19L12 18L13 18L13 19L14 19L14 18L15 18L15 17L17 17L17 16L16 16L16 15L15 15L15 17L14 17L14 15ZM19 15L19 16L20 16L20 15ZM19 17L19 18L20 18L20 19L19 19L19 20L15 20L15 21L19 21L19 20L20 20L20 21L21 21L21 18L20 18L20 17ZM0 0L0 7L7 7L7 0ZM1 1L1 6L6 6L6 1ZM2 2L2 5L5 5L5 2ZM14 0L14 7L21 7L21 0ZM15 1L15 6L20 6L20 1ZM16 2L16 5L19 5L19 2ZM0 14L0 21L7 21L7 14ZM1 15L1 20L6 20L6 15ZM2 16L2 19L5 19L5 16Z" fill="#000000"/></g></g></svg>
