<?xml version="1.0" encoding="UTF-8"?>
<svg xmlns="http://www.w3.org/2000/svg" version="1.1" width="100" height="100" viewBox="0 0 100 100"><rect x="0" y="0" width="100" height="100" fill="#ffffff"/><g transform="scale(4.762)"><g transform="translate(0,0)"><path fill-rule="evenodd" d="M8 0L8 4L9 4L9 5L8 5L8 7L9 7L9 5L10 5L10 7L11 7L11 5L12 5L12 7L13 7L13 2L12 2L12 1L13 1L13 0L12 0L12 1L11 1L11 2L10 2L10 1L9 1L9 0ZM9 3L9 4L10 4L10 3ZM11 3L11 4L12 4L12 3ZM0 8L0 9L2 9L2 8ZM4 8L4 9L3 9L3 11L2 11L2 10L1 10L1 11L0 11L0 12L1 12L1 13L8 13L8 14L9 14L9 15L8 15L8 17L9 17L9 15L11 15L11 16L12 16L12 18L11 18L11 17L10 17L10 18L9 18L9 19L8 19L8 21L9 21L9 19L10 19L10 18L11 18L11 19L12 19L12 20L10 20L10 21L13 21L13 17L15 17L15 18L16 18L16 19L17 19L17 20L15 20L15 19L14 19L14 20L15 20L15 21L17 21L17 20L19 20L19 21L21 21L21 19L20 19L20 20L19 20L19 18L21 18L21 17L20 17L20 16L19 16L19 17L18 17L18 15L19 15L19 13L21 13L21 12L20 12L20 11L17 11L17 10L15 10L15 9L16 9L16 8L15 8L15 9L14 9L14 11L13 11L13 8L12 8L12 11L11 11L11 13L12 13L12 14L10 14L10 9L9 9L9 10L6 10L6 11L5 11L5 12L4 12L4 9L7 9L7 8ZM17 8L17 9L21 9L21 8ZM1 11L1 12L2 12L2 11ZM6 11L6 12L8 12L8 13L9 13L9 12L8 12L8 11ZM15 11L15 13L17 13L17 14L14 14L14 13L13 13L13 12L12 12L12 13L13 13L13 14L12 14L12 15L14 15L14 16L15 16L15 17L16 17L16 15L18 15L18 13L19 13L19 12L18 12L18 13L17 13L17 11ZM20 14L20 15L21 15L21 14ZM17 18L17 19L18 19L18 18ZM0 0L0 7L7 7L7 0ZM1 1L1 6L6 6L6 1ZM2 2L2 5L5 5L5 2ZM14 0L14 7L21 7L21 0ZM15 1L15 6L20 6L20 1ZM16 2L16 5L19 5L19 2ZM0 14L0 21L7 21L7 14ZM1 15L1 20L6 20L6 15ZM2 16L2 19L5 19L5 16Z" fill="#000000"/></g></g></svg>
