<?xml version="1.0" encoding="UTF-8"?>
<svg xmlns="http://www.w3.org/2000/svg" version="1.1" width="100" height="100" viewBox="0 0 100 100"><rect x="0" y="0" width="100" height="100" fill="#ffffff"/><g transform="scale(4.762)"><g transform="translate(0,0)"><path fill-rule="evenodd" d="M8 0L8 4L9 4L9 5L8 5L8 7L9 7L9 5L10 5L10 7L11 7L11 5L12 5L12 7L13 7L13 2L12 2L12 1L13 1L13 0L12 0L12 1L11 1L11 2L10 2L10 1L9 1L9 0ZM9 3L9 4L10 4L10 3ZM11 3L11 4L12 4L12 3ZM0 8L0 10L1 10L1 11L2 11L2 10L3 10L3 12L1 12L1 13L5 13L5 12L6 12L6 13L7 13L7 12L6 12L6 11L7 11L7 10L8 10L8 9L7 9L7 8L4 8L4 9L2 9L2 8ZM12 8L12 11L11 11L11 13L12 13L12 14L10 14L10 15L8 15L8 17L11 17L11 16L12 16L12 18L9 18L9 19L8 19L8 21L9 21L9 20L13 20L13 21L15 21L15 19L14 19L14 20L13 20L13 19L12 19L12 18L15 18L15 17L13 17L13 15L14 15L14 16L15 16L15 15L14 15L14 14L15 14L15 13L16 13L16 14L17 14L17 13L18 13L18 15L17 15L17 17L16 17L16 18L17 18L17 19L16 19L16 20L17 20L17 21L18 21L18 20L19 20L19 21L21 21L21 19L20 19L20 20L19 20L19 19L18 19L18 18L17 18L17 17L18 17L18 15L19 15L19 13L21 13L21 12L20 12L20 11L17 11L17 10L15 10L15 9L16 9L16 8L15 8L15 9L13 9L13 8ZM17 8L17 9L21 9L21 8ZM1 9L1 10L2 10L2 9ZM4 9L4 10L5 10L5 11L6 11L6 10L7 10L7 9L6 9L6 10L5 10L5 9ZM10 9L10 10L11 10L11 9ZM13 10L13 12L12 12L12 13L13 13L13 14L12 14L12 15L13 15L13 14L14 14L14 13L15 13L15 10ZM16 11L16 13L17 13L17 11ZM9 12L9 13L8 13L8 14L9 14L9 13L10 13L10 12ZM13 12L13 13L14 13L14 12ZM18 12L18 13L19 13L19 12ZM20 14L20 15L21 15L21 14ZM10 15L10 16L11 16L11 15ZM19 16L19 18L21 18L21 17L20 17L20 16ZM0 0L0 7L7 7L7 0ZM1 1L1 6L6 6L6 1ZM2 2L2 5L5 5L5 2ZM14 0L14 7L21 7L21 0ZM15 1L15 6L20 6L20 1ZM16 2L16 5L19 5L19 2ZM0 14L0 21L7 21L7 14ZM1 15L1 20L6 20L6 15ZM2 16L2 19L5 19L5 16Z" fill="#000000"/></g></g></svg>
